<?xml version="1.0" encoding="UTF-8"?>
<svg width="1458px" height="255px" viewBox="0 0 1458 255" version="1.1" xmlns="http://www.w3.org/2000/svg" xmlns:xlink="http://www.w3.org/1999/xlink">
    <!-- Generator: Sketch 55.2 (78181) - https://sketchapp.com -->
    <title>transparent-graphs-d421a3da</title>
    <desc>Created with Sketch.</desc>
    <g id="Page-1" stroke="none" stroke-width="1" fill="none" fill-rule="evenodd">
        <g id="transparent-graphs-d421a3da">
            <path d="M0,149 C30.752,107.827 81.766,87.213 147.04,87.213 C244.953,87.213 257.276,139.659 380.74,139.659 C504.205,139.659 472.082,197.207 545.662,197.207 C619.242,197.207 688.189,130.429 859.834,130.429 C1031.479,130.429 1150.989,197.207 1225.588,197.207 C1300.187,197.207 1353.385,101.083 1402.46,89.253 C1414.97048,86.2371327 1425.64245,84.6594126 1457.631,97.0200179 L1457.631,255 L0,255 L0,149 Z" id="Path" fill="#FF732E"></path>
            <path d="M1457.631,255 L0,255 L0,93.3823594 C58.673,79.2993594 111.023,70.291 151.048,70.291 C248.988,70.291 320.398,143.328 442.918,143.328 C565.438,143.328 576.263,101.981 747.956,101.981 C919.65,101.981 857.996,127.941 1016.365,127.941 C1174.733,127.941 1189.325,43 1299.307,43 C1344.061,43 1396.836,54.663 1457.631,77.988 L1457.631,255 Z" id="Path" fill-opacity="0.4" fill="#C62B04"></path>
            <path d="M0,77.8922977 C7.95729784,68.3934284 89.725,2 187.642,2 C285.559,2 320.426,143.328 442.918,143.328 C565.409,143.328 590.883105,43 762.537105,43 C831.440105,43 866.832395,71.4308387 962.248395,71.4308387 C1057.66439,71.4308387 1015.07032,134.730834 1173.40132,134.730834 C1331.73332,134.730834 1304.51438,58.0229556 1371.15059,43 C1437.78679,27.9770444 1445.08314,-5.82245647 1457.631,2 L1457.631,255 L0,255 L0,77.8922977 Z" id="Path" fill-opacity="0.2" fill="#CF743E"></path>
        </g>
    </g>
</svg>