<svg xmlns="http://www.w3.org/2000/svg" width="344" height="77" viewBox="0 0 344 77">
  <g fill="none" fill-rule="evenodd">
    <path fill="#000" fill-rule="nonzero" d="M0,38.4 L0,0 L30.7900565,0 L30.7900565,9.05142857 L10.500339,9.05142857 L10.500339,14.8662857 L24.0457543,14.8662857 L24.0457543,23.2594286 L10.500339,23.2594286 L10.500339,29.3485714 L31.0635028,29.3485714 L31.0635028,38.4 L0,38.4 Z M36.4777401,38.4 L36.4777401,0 L46.3764972,0 L62.1270056,20.2971429 L62.1270056,0 L72.6273446,0 L72.6273446,38.4 L63.3301695,38.4 L46.9780791,17.3348571 L46.9780791,38.4 L36.4777401,38.4 Z M78.2056497,38.4 L78.2056497,30.6651429 L97.4015819,8.99657143 L78.8619209,8.99657143 L78.8619209,0 L112.058305,0 L112.058305,7.73485714 L92.8623729,29.4034286 L112.058305,29.4034286 L112.058305,38.4 L78.2056497,38.4 Z M128.629153,38.4 L128.629153,24.0274286 L114.081808,0 L126.168136,0 L134.04339,13.9885714 L141.973333,0 L153.840904,0 L139.293559,23.8628571 L139.293559,38.4 L128.629153,38.4 Z M157.12226,38.4 L157.12226,0 L168.333559,0 L177.466667,14.8662857 L186.599774,0 L197.811073,0 L197.811073,38.4 L187.256045,38.4 L187.256045,16.3474286 L177.466667,31.3782857 L177.24791,31.3782857 L167.51322,16.4571429 L167.51322,38.4 L157.12226,38.4 Z M204.592542,38.4 L204.592542,0 L235.382599,0 L235.382599,9.05142857 L215.092881,9.05142857 L215.092881,14.8662857 L228.516903,14.8662857 L228.516903,23.2594286 L215.092881,23.2594286 L215.092881,29.3485714 L235.656045,29.3485714 L235.656045,38.4 L204.592542,38.4 Z" transform="translate(0 19)"/>
    <rect width="3" height="77" x="252" fill="#FA3E15"/>
    <path fill="#FA3E15" fill-rule="nonzero" d="M270,54 L270,23 L276,23 L276,54 L270,54 Z M279,43.70547 C279,42.1436532 279.290391,40.6909039 279.871183,39.3471786 C280.451975,38.0034532 281.225186,36.8919066 282.19084,36.0125052 C283.156493,35.1331038 284.248086,34.4436635 285.465649,33.9441635 C286.683212,33.4446635 287.935744,33.1949172 289.223282,33.1949172 C289.769087,33.1949172 290.353368,33.2547156 290.976145,33.3743142 C291.598922,33.4939128 292.319652,33.7682819 293.138359,34.1974298 C293.957065,34.6265777 294.604323,35.1858686 295.080153,35.8753193 L295.080153,33.6381333 L301,33.6381333 L301,54.1949172 L295.080153,54.1949172 L295.080153,51.5145152 C294.506358,52.3868814 293.628187,53.0516989 292.445611,53.5089876 C291.263035,53.9662763 290.188936,54.1949172 289.223282,54.1949172 C287.487905,54.1949172 285.850517,53.779846 284.311069,52.9496911 C282.771621,52.1195362 281.501595,50.8919103 280.500954,49.2667765 C279.500313,47.6416428 279,45.7878925 279,43.70547 Z M286.528662,40.4806315 C285.509549,41.3245918 285,42.3993063 285,43.7048074 C285,45.0103084 285.513088,46.0850229 286.539278,46.9289832 C287.565469,47.7729434 288.743801,48.1949172 290.07431,48.1949172 C291.390665,48.1949172 292.540689,47.7828335 293.524416,46.9586535 C294.508144,46.1344736 295,45.049869 295,43.7048074 C295,42.3465588 294.508144,41.2553609 293.524416,40.431181 C292.540689,39.607001 291.390665,39.1949172 290.07431,39.1949172 C288.743801,39.1949172 287.56193,39.6234844 286.528662,40.4806315 Z M305,54.1949172 L305,23.1949172 L310.792398,23.1949172 L310.792398,36.385966 C311.256338,35.5024167 312.01364,34.8087029 313.064327,34.3048037 C314.115015,33.8009045 315.268025,33.5489587 316.523392,33.5489587 C317.778759,33.5489587 318.979526,33.7974532 320.125731,34.2944496 C321.271936,34.7914461 322.278261,35.4782573 323.144737,36.3549039 C324.011213,37.2315504 324.703701,38.3290679 325.222222,39.6474891 C325.740743,40.9659103 326,42.398205 326,43.9444162 C326,45.4630166 325.740743,46.8711521 325.222222,48.1688651 C324.703701,49.4665782 324.011213,50.5502903 323.144737,51.4200341 C322.278261,52.289778 321.271936,52.9696866 320.125731,53.4597803 C318.979526,53.949874 317.778759,54.1949172 316.523392,54.1949172 C315.28167,54.1949172 314.135483,53.9395201 313.084795,53.4287182 C312.034108,52.9179162 311.269983,52.2138485 310.792398,51.3164937 L310.792398,54.1949172 L305,54.1949172 Z M311,44.1622375 C311,45.629202 311.441172,46.8347092 312.323529,47.7787952 C313.205887,48.7228813 314.2647,49.1949172 315.5,49.1949172 C316.76245,49.1949172 317.82805,48.7301434 318.696833,47.8005817 C319.565615,46.8710201 320,45.6582508 320,44.1622375 C320,42.695273 319.565615,41.500659 318.696833,40.5783595 C317.82805,39.6560601 316.76245,39.1949172 315.5,39.1949172 C314.251125,39.1949172 313.188918,39.648798 312.313348,40.556573 C311.437778,41.4643481 311,42.6662242 311,44.1622375 Z M328,47.5951178 L333.234932,47.5951178 C333.261173,48.1701792 333.543253,48.6817087 334.081181,49.1297217 C334.619109,49.5777346 335.261989,49.8017377 336.00984,49.8017377 C336.65273,49.7749907 337.19721,49.6178542 337.643296,49.3303235 C338.089383,49.0427928 338.312423,48.6649965 338.312423,48.1969233 C338.312423,47.7823441 338.174663,47.4513545 337.899139,47.2039443 C337.623615,46.9565342 337.144735,46.7459044 336.462485,46.5720486 L334.00246,45.9100627 C332.926604,45.6158452 332.008204,45.2480789 331.247232,44.8067528 C330.486261,44.3654266 329.922101,43.9475103 329.554736,43.5529915 C329.18737,43.1584726 328.90529,42.6904064 328.708487,42.1487788 C328.511684,41.6071512 328.400164,41.1758617 328.373924,40.8548972 C328.347683,40.5339327 328.341123,40.1327331 328.354244,39.6512864 C328.380484,38.2203197 329.121764,36.9531976 330.578106,35.8498821 C332.034448,34.7465667 333.740048,34.1949172 335.694957,34.1949172 C336.469049,34.1949172 337.213609,34.2651272 337.928659,34.4055491 C338.64371,34.5459711 339.33907,34.7766609 340.01476,35.0976254 C340.69045,35.4185899 341.27429,35.8197895 341.766298,36.3012362 C342.258305,36.7826829 342.655185,37.3878257 342.95695,38.1166825 C343.258714,38.8455394 343.416154,39.6646553 343.429274,40.5740547 L338.154982,40.5740547 C338.128741,39.4506789 337.413701,38.8889995 336.00984,38.8889995 C335.406311,38.8889995 334.924151,39.0193894 334.563346,39.280173 C334.20254,39.5409567 334.0287,39.8853197 334.04182,40.3132723 C334.094301,41.0086954 334.645341,41.4901349 335.694957,41.7576053 L338.883149,42.6201931 C339.749082,42.8609164 340.506762,43.1785328 341.156212,43.5730516 C341.805661,43.9675705 342.304221,44.3654268 342.651907,44.7666324 C342.999592,45.167838 343.281672,45.6024709 343.498155,46.0705441 C343.714638,46.5386173 343.852398,46.9364736 343.911439,47.2641249 C343.97048,47.5917761 344,47.9027058 344,48.1969233 C344,49.1731903 343.76384,50.0558294 343.291513,50.8448671 C342.819186,51.6339048 342.189426,52.2657942 341.402214,52.7405542 C340.615002,53.2153141 339.745802,53.5763938 338.794588,53.8238039 C337.843374,54.071214 336.862654,54.1949172 335.852399,54.1949172 C335.078307,54.1949172 334.317347,54.1046473 333.569496,53.9241048 C332.821644,53.7435623 332.113164,53.4694092 331.444034,53.1016374 C330.774904,52.7338656 330.184504,52.292546 329.672817,51.7776655 C329.161129,51.2627849 328.757689,50.6442689 328.462485,49.9220988 C328.16728,49.1999287 328.01312,48.4242761 328,47.5951178 Z"/>
  </g>
</svg>
